<svg width="40" height="40" viewBox="0 0 40 40" fill="none" xmlns="http://www.w3.org/2000/svg">
<path fill-rule="evenodd" clip-rule="evenodd" d="M11.25 8.75C10.9185 8.75 10.6005 8.8817 10.3661 9.11612C10.1317 9.35054 10 9.66848 10 10V30C10 30.3315 10.1317 30.6495 10.3661 30.8839C10.6005 31.1183 10.9185 31.25 11.25 31.25C11.5815 31.25 11.8995 31.1183 12.1339 30.8839C12.3683 30.6495 12.5 30.3315 12.5 30V10C12.5 9.66848 12.3683 9.35054 12.1339 9.11612C11.8995 8.8817 11.5815 8.75 11.25 8.75Z" fill="black"/>
<path d="M12.2607 21.7428L28.1707 30.9728C29.5207 31.7553 31.2507 30.8078 31.2507 29.2303V10.7703C31.2507 9.19526 29.5207 8.24526 28.1707 9.03026L12.2607 18.2603C11.9536 18.4356 11.6984 18.689 11.5208 18.9948C11.3433 19.3006 11.2498 19.6479 11.2498 20.0015C11.2498 20.3551 11.3433 20.7024 11.5208 21.0082C11.6984 21.314 11.9536 21.5674 12.2607 21.7428Z" fill="black"/>
</svg>