<svg width="40" height="40" viewBox="0 0 40 40" fill="none" xmlns="http://www.w3.org/2000/svg">
<path fill-rule="evenodd" clip-rule="evenodd" d="M30 8.75C30.3315 8.75 30.6495 8.8817 30.8839 9.11612C31.1183 9.35054 31.25 9.66848 31.25 10V30C31.25 30.3315 31.1183 30.6495 30.8839 30.8839C30.6495 31.1183 30.3315 31.25 30 31.25C29.6685 31.25 29.3505 31.1183 29.1161 30.8839C28.8817 30.6495 28.75 30.3315 28.75 30V10C28.75 9.66848 28.8817 9.35054 29.1161 9.11612C29.3505 8.8817 29.6685 8.75 30 8.75Z" fill="black"/>
<path d="M28.99 21.7428L13.0825 30.9728C11.7325 31.7553 10 30.8078 10 29.2303V10.7703C10 9.19526 11.73 8.24526 13.0825 9.03026L28.99 18.2603C29.2971 18.4356 29.5524 18.689 29.7299 18.9948C29.9075 19.3006 30.001 19.6479 30.001 20.0015C30.001 20.3551 29.9075 20.7024 29.7299 21.0082C29.5524 21.314 29.2971 21.5674 28.99 21.7428Z" fill="black"/>
</svg>