<svg width="51" height="50" viewBox="0 0 51 50" fill="none" xmlns="http://www.w3.org/2000/svg">
<path d="M36.7714 43.782C39.2912 41.3185 41.2895 38.391 42.6516 35.1679C44.0137 31.9448 44.7126 28.4895 44.7083 25.0007C44.7126 21.5119 44.0137 18.0567 42.6516 14.8336C41.2895 11.6105 39.2912 8.68301 36.7714 6.21948L34.5146 8.42886C36.738 10.6026 38.5012 13.1856 39.703 16.0296C40.9049 18.8736 41.5215 21.9224 41.5176 25.0007C41.5176 31.4726 38.8401 37.332 34.5146 41.5726L36.7714 43.782Z" fill="black"/>
<path d="M32.2609 39.362C34.1877 37.4779 35.7157 35.2392 36.7572 32.7744C37.7988 30.3097 38.3332 27.6674 38.3299 24.9995C38.3332 22.3315 37.7988 19.6893 36.7572 17.2245C35.7157 14.7597 34.1877 12.521 32.2609 10.637L30.0073 12.8463C31.6377 14.4405 32.9306 16.3349 33.8119 18.4205C34.6931 20.5062 35.1453 22.742 35.1424 24.9995C35.1461 27.2573 34.6946 29.4935 33.8139 31.5797C32.9332 33.6659 31.6407 35.5609 30.0105 37.1557L32.2609 39.362Z" fill="black"/>
<path d="M27.7536 34.9434C29.0875 33.639 30.1453 32.089 30.8663 30.3826C31.5873 28.6761 31.9571 26.8467 31.9547 24.9997C31.9571 23.1526 31.5873 21.3232 30.8663 19.6168C30.1453 17.9103 29.0875 16.3603 27.7536 15.0559L25.5 17.2653C26.5375 18.2799 27.3602 19.4855 27.9209 20.8128C28.4816 22.1401 28.7692 23.563 28.7672 24.9997C28.769 26.4363 28.4813 27.8591 27.9207 29.1864C27.36 30.5137 26.5373 31.7193 25.5 32.734L27.7536 34.9434Z" fill="black"/>
<path fill-rule="evenodd" clip-rule="evenodd" d="M21.4104 11.0936C21.6805 11.2211 21.9083 11.4207 22.0679 11.6695C22.2274 11.9182 22.3122 12.206 22.3125 12.4999V37.4999C22.3121 37.7939 22.227 38.0818 22.0672 38.3306C21.9073 38.5793 21.6791 38.7788 21.4088 38.9061C21.1384 39.0334 20.837 39.0833 20.539 39.0502C20.241 39.017 19.9586 38.9021 19.7243 38.7186L12.1922 32.8124H4.78125C4.35856 32.8124 3.95318 32.6477 3.6543 32.3547C3.35541 32.0617 3.1875 31.6643 3.1875 31.2499V18.7499C3.1875 18.3355 3.35541 17.938 3.6543 17.645C3.95318 17.352 4.35856 17.1874 4.78125 17.1874H12.1922L19.7243 11.2811C19.9588 11.0973 20.2415 10.9822 20.5398 10.949C20.8381 10.9159 21.1399 10.966 21.4104 11.0936Z" fill="black"/>
</svg>